<mxfile host="Electron" modified="2023-05-27T16:07:11.824Z" agent="Mozilla/5.0 (Macintosh; Intel Mac OS X 10_15_7) AppleWebKit/537.36 (KHTML, like Gecko) draw.io/21.2.1 Chrome/112.0.5615.87 Electron/24.1.2 Safari/537.36" etag="T_qaQqwJEmh9k9ZTzS2l" version="21.2.1" type="device">
  <diagram name="Page-1" id="H1nZVYqxkzLZFgEqRADx">
    <mxGraphModel dx="15770" dy="22500" grid="1" gridSize="10" guides="1" tooltips="1" connect="1" arrows="1" fold="1" page="1" pageScale="1" pageWidth="850" pageHeight="1100" math="0" shadow="0">
      <root>
        <mxCell id="0" />
        <mxCell id="1" parent="0" />
        <mxCell id="AsBp8XiL8Dx4Y6rQVwFH-4097" value="R, W: 134, H: 133, ORDER: 15, GC: {65, 35, 34, 1, 33, 19, 17, 2, 15, 8, 13, 3, 5, 68, 66} " style="text;html=1;strokeColor=none;fillColor=none;align=center;verticalAlign=middle;whiteSpace=wrap;rounded=0;fontSize=32;flipV=1;" parent="1" vertex="1">
          <mxGeometry x="1440" width="1340" height="30" as="geometry" />
        </mxCell>
        <mxCell id="AsBp8XiL8Dx4Y6rQVwFH-6365" value="R, W: 134, H: 105, ORDER: 17, GC: {37, 20, 23, 17, 3, 15, 39, 8, 7, 1, 6, 14, 16, 5, 11, 68, 66} " style="text;html=1;strokeColor=none;fillColor=none;align=center;verticalAlign=middle;whiteSpace=wrap;rounded=0;fontSize=32;flipV=1;" parent="1" vertex="1">
          <mxGeometry x="1450" y="1760" width="1340" height="30" as="geometry" />
        </mxCell>
        <mxCell id="AsBp8XiL8Dx4Y6rQVwFH-8104" value="R, W: 134, H: 130, ORDER: 18, GC: {56, 37, 41, 19, 14, 4, 16, 5, 9, 29, 3, 13, 74, 6, 2, 10, 8, 60} " style="text;html=1;strokeColor=none;fillColor=none;align=center;verticalAlign=middle;whiteSpace=wrap;rounded=0;fontSize=32;flipV=1;" parent="1" vertex="1">
          <mxGeometry x="1440" y="3060" width="1340" height="30" as="geometry" />
        </mxCell>
        <mxCell id="AsBp8XiL8Dx4Y6rQVwFH-17669" value="R, W: 134, H: 130, ORDER: 20, GC: {29, 31, 27, 2, 30, 44, 9, 21, 25, 8, 17, 7, 11, 26, 5, 19, 4, 15, 74, 60} " style="text;html=1;strokeColor=none;fillColor=none;align=center;verticalAlign=middle;whiteSpace=wrap;rounded=0;fontSize=32;flipV=1;" parent="1" vertex="1">
          <mxGeometry x="1467.5" y="4600" width="1340" height="30" as="geometry" />
        </mxCell>
        <mxCell id="AsBp8XiL8Dx4Y6rQVwFH-23109" value="R, W: 134, H: 125, ORDER: 21, GC: {54, 37, 43, 17, 20, 14, 29, 71, 19, 15, 4, 9, 18, 5, 10, 13, 1, 21, 11, 32, 31} " style="text;html=1;strokeColor=none;fillColor=none;align=center;verticalAlign=middle;whiteSpace=wrap;rounded=0;fontSize=32;flipV=1;" parent="1" vertex="1">
          <mxGeometry x="1475" y="6050" width="1340" height="30" as="geometry" />
        </mxCell>
        <mxCell id="AsBp8XiL8Dx4Y6rQVwFH-39236" value="R, W: 134, H: 120, ORDER: 22, GC: {36, 27, 39, 15, 12, 32, 7, 25, 30, 6, 3, 38, 17, 16, 1, 24, 26, 5, 11, 54, 43, 37} " style="text;html=1;strokeColor=none;fillColor=none;align=center;verticalAlign=middle;whiteSpace=wrap;rounded=0;fontSize=32;flipV=1;" parent="1" vertex="1">
          <mxGeometry x="1467.5" y="7460" width="1340" height="30" as="geometry" />
        </mxCell>
        <mxCell id="AsBp8XiL8Dx4Y6rQVwFH-39328" value="R, W: 134, H: 128, ORDER: 22, GC: {42, 47, 37, 5, 45, 20, 25, 21, 31, 13, 7, 11, 10, 2, 23, 9, 1, 50, 3, 12, 35, 49} " style="text;html=1;strokeColor=none;fillColor=none;align=center;verticalAlign=middle;whiteSpace=wrap;rounded=0;fontSize=32;flipV=1;" parent="1" vertex="1">
          <mxGeometry x="1475" y="8830" width="1340" height="30" as="geometry" />
        </mxCell>
        <mxCell id="AsBp8XiL8Dx4Y6rQVwFH-46855" value="R, W: 134, H: 120, ORDER: 25, GC: {39, 48, 30, 9, 22, 25, 19, 3, 28, 7, 12, 21, 32, 11, 6, 10, 13, 4, 24, 14, 8, 5, 43, 51, 40} " style="text;html=1;strokeColor=none;fillColor=none;align=center;verticalAlign=middle;whiteSpace=wrap;rounded=0;fontSize=32;flipV=1;" parent="1" vertex="1">
          <mxGeometry x="1460" y="10260" width="1340" height="30" as="geometry" />
        </mxCell>
        <mxCell id="AsBp8XiL8Dx4Y6rQVwFH-47769" value="R, W: 134, H: 105, ORDER: 27, GC: {31, 29, 36, 2, 27, 33, 38, 22, 14, 8, 19, 10, 28, 3, 7, 13, 1, 4, 11, 17, 5, 18, 39, 41, 30, 6, 24} " style="text;html=1;strokeColor=none;fillColor=none;align=center;verticalAlign=middle;whiteSpace=wrap;rounded=0;fontSize=32;flipV=1;" parent="1" vertex="1">
          <mxGeometry x="1460" y="11590" width="1340" height="30" as="geometry" />
        </mxCell>
        <mxCell id="DDAUUkxgNkph-y3eDjy--1" value="" style="group;flipV=1;" vertex="1" connectable="0" parent="1">
          <mxGeometry x="1440" y="50" width="1340" height="1330" as="geometry" />
        </mxCell>
        <mxCell id="761dnnyQ54j-Cl0NHfQN-4098" value="65" style="rounded=0;whiteSpace=wrap;html=1;fontSize=32;" parent="DDAUUkxgNkph-y3eDjy--1" vertex="1">
          <mxGeometry y="680" width="650" height="650" as="geometry" />
        </mxCell>
        <mxCell id="761dnnyQ54j-Cl0NHfQN-4099" value="35" style="rounded=0;whiteSpace=wrap;html=1;fontSize=32;" parent="DDAUUkxgNkph-y3eDjy--1" vertex="1">
          <mxGeometry x="650" y="980" width="350" height="350" as="geometry" />
        </mxCell>
        <mxCell id="761dnnyQ54j-Cl0NHfQN-4100" value="34" style="rounded=0;whiteSpace=wrap;html=1;fontSize=32;" parent="DDAUUkxgNkph-y3eDjy--1" vertex="1">
          <mxGeometry x="1000" y="990" width="340" height="340" as="geometry" />
        </mxCell>
        <mxCell id="761dnnyQ54j-Cl0NHfQN-4101" value="1" style="rounded=0;whiteSpace=wrap;html=1;fontSize=32;" parent="DDAUUkxgNkph-y3eDjy--1" vertex="1">
          <mxGeometry x="1000" y="980" width="10" height="10" as="geometry" />
        </mxCell>
        <mxCell id="761dnnyQ54j-Cl0NHfQN-4102" value="33" style="rounded=0;whiteSpace=wrap;html=1;fontSize=32;" parent="DDAUUkxgNkph-y3eDjy--1" vertex="1">
          <mxGeometry x="1010" y="660" width="330" height="330" as="geometry" />
        </mxCell>
        <mxCell id="761dnnyQ54j-Cl0NHfQN-4103" value="19" style="rounded=0;whiteSpace=wrap;html=1;fontSize=32;" parent="DDAUUkxgNkph-y3eDjy--1" vertex="1">
          <mxGeometry x="650" y="790" width="190" height="190" as="geometry" />
        </mxCell>
        <mxCell id="761dnnyQ54j-Cl0NHfQN-4104" value="17" style="rounded=0;whiteSpace=wrap;html=1;fontSize=32;" parent="DDAUUkxgNkph-y3eDjy--1" vertex="1">
          <mxGeometry x="840" y="810" width="170" height="170" as="geometry" />
        </mxCell>
        <mxCell id="761dnnyQ54j-Cl0NHfQN-4105" value="2" style="rounded=0;whiteSpace=wrap;html=1;fontSize=32;" parent="DDAUUkxgNkph-y3eDjy--1" vertex="1">
          <mxGeometry x="840" y="790" width="20" height="20" as="geometry" />
        </mxCell>
        <mxCell id="761dnnyQ54j-Cl0NHfQN-4106" value="15" style="rounded=0;whiteSpace=wrap;html=1;fontSize=32;" parent="DDAUUkxgNkph-y3eDjy--1" vertex="1">
          <mxGeometry x="860" y="660" width="150" height="150" as="geometry" />
        </mxCell>
        <mxCell id="761dnnyQ54j-Cl0NHfQN-4107" value="8" style="rounded=0;whiteSpace=wrap;html=1;fontSize=32;" parent="DDAUUkxgNkph-y3eDjy--1" vertex="1">
          <mxGeometry x="650" y="710" width="80" height="80" as="geometry" />
        </mxCell>
        <mxCell id="761dnnyQ54j-Cl0NHfQN-4108" value="13" style="rounded=0;whiteSpace=wrap;html=1;fontSize=32;" parent="DDAUUkxgNkph-y3eDjy--1" vertex="1">
          <mxGeometry x="730" y="660" width="130" height="130" as="geometry" />
        </mxCell>
        <mxCell id="761dnnyQ54j-Cl0NHfQN-4109" value="3" style="rounded=0;whiteSpace=wrap;html=1;fontSize=32;" parent="DDAUUkxgNkph-y3eDjy--1" vertex="1">
          <mxGeometry x="650" y="680" width="30" height="30" as="geometry" />
        </mxCell>
        <mxCell id="761dnnyQ54j-Cl0NHfQN-4110" value="5" style="rounded=0;whiteSpace=wrap;html=1;fontSize=32;" parent="DDAUUkxgNkph-y3eDjy--1" vertex="1">
          <mxGeometry x="680" y="660" width="50" height="50" as="geometry" />
        </mxCell>
        <mxCell id="761dnnyQ54j-Cl0NHfQN-4111" value="68" style="rounded=0;whiteSpace=wrap;html=1;fontSize=32;" parent="DDAUUkxgNkph-y3eDjy--1" vertex="1">
          <mxGeometry width="680" height="680" as="geometry" />
        </mxCell>
        <mxCell id="761dnnyQ54j-Cl0NHfQN-4112" value="66" style="rounded=0;whiteSpace=wrap;html=1;fontSize=32;" parent="DDAUUkxgNkph-y3eDjy--1" vertex="1">
          <mxGeometry x="680" width="660" height="660" as="geometry" />
        </mxCell>
        <mxCell id="DDAUUkxgNkph-y3eDjy--2" value="" style="group;flipV=1;" vertex="1" connectable="0" parent="1">
          <mxGeometry x="1450" y="1810" width="1340" height="1050" as="geometry" />
        </mxCell>
        <mxCell id="761dnnyQ54j-Cl0NHfQN-6366" value="37" style="rounded=0;whiteSpace=wrap;html=1;fontSize=32;" parent="DDAUUkxgNkph-y3eDjy--2" vertex="1">
          <mxGeometry y="680" width="370" height="370" as="geometry" />
        </mxCell>
        <mxCell id="761dnnyQ54j-Cl0NHfQN-6367" value="20" style="rounded=0;whiteSpace=wrap;html=1;fontSize=32;" parent="DDAUUkxgNkph-y3eDjy--2" vertex="1">
          <mxGeometry x="370" y="850" width="200" height="200" as="geometry" />
        </mxCell>
        <mxCell id="761dnnyQ54j-Cl0NHfQN-6368" value="23" style="rounded=0;whiteSpace=wrap;html=1;fontSize=32;" parent="DDAUUkxgNkph-y3eDjy--2" vertex="1">
          <mxGeometry x="570" y="820" width="230" height="230" as="geometry" />
        </mxCell>
        <mxCell id="761dnnyQ54j-Cl0NHfQN-6369" value="17" style="rounded=0;whiteSpace=wrap;html=1;fontSize=32;" parent="DDAUUkxgNkph-y3eDjy--2" vertex="1">
          <mxGeometry x="370" y="680" width="170" height="170" as="geometry" />
        </mxCell>
        <mxCell id="761dnnyQ54j-Cl0NHfQN-6370" value="3" style="rounded=0;whiteSpace=wrap;html=1;fontSize=32;" parent="DDAUUkxgNkph-y3eDjy--2" vertex="1">
          <mxGeometry x="540" y="820" width="30" height="30" as="geometry" />
        </mxCell>
        <mxCell id="761dnnyQ54j-Cl0NHfQN-6371" value="15" style="rounded=0;whiteSpace=wrap;html=1;fontSize=32;" parent="DDAUUkxgNkph-y3eDjy--2" vertex="1">
          <mxGeometry x="800" y="900" width="150" height="150" as="geometry" />
        </mxCell>
        <mxCell id="761dnnyQ54j-Cl0NHfQN-6372" value="39" style="rounded=0;whiteSpace=wrap;html=1;fontSize=32;" parent="DDAUUkxgNkph-y3eDjy--2" vertex="1">
          <mxGeometry x="950" y="660" width="390" height="390" as="geometry" />
        </mxCell>
        <mxCell id="761dnnyQ54j-Cl0NHfQN-6373" value="8" style="rounded=0;whiteSpace=wrap;html=1;fontSize=32;" parent="DDAUUkxgNkph-y3eDjy--2" vertex="1">
          <mxGeometry x="800" y="820" width="80" height="80" as="geometry" />
        </mxCell>
        <mxCell id="761dnnyQ54j-Cl0NHfQN-6374" value="7" style="rounded=0;whiteSpace=wrap;html=1;fontSize=32;" parent="DDAUUkxgNkph-y3eDjy--2" vertex="1">
          <mxGeometry x="880" y="830" width="70" height="70" as="geometry" />
        </mxCell>
        <mxCell id="761dnnyQ54j-Cl0NHfQN-6375" value="1" style="rounded=0;whiteSpace=wrap;html=1;fontSize=32;" parent="DDAUUkxgNkph-y3eDjy--2" vertex="1">
          <mxGeometry x="880" y="820" width="10" height="10" as="geometry" />
        </mxCell>
        <mxCell id="761dnnyQ54j-Cl0NHfQN-6376" value="6" style="rounded=0;whiteSpace=wrap;html=1;fontSize=32;" parent="DDAUUkxgNkph-y3eDjy--2" vertex="1">
          <mxGeometry x="890" y="770" width="60" height="60" as="geometry" />
        </mxCell>
        <mxCell id="761dnnyQ54j-Cl0NHfQN-6377" value="14" style="rounded=0;whiteSpace=wrap;html=1;fontSize=32;" parent="DDAUUkxgNkph-y3eDjy--2" vertex="1">
          <mxGeometry x="540" y="680" width="140" height="140" as="geometry" />
        </mxCell>
        <mxCell id="761dnnyQ54j-Cl0NHfQN-6378" value="16" style="rounded=0;whiteSpace=wrap;html=1;fontSize=32;" parent="DDAUUkxgNkph-y3eDjy--2" vertex="1">
          <mxGeometry x="680" y="660" width="160" height="160" as="geometry" />
        </mxCell>
        <mxCell id="761dnnyQ54j-Cl0NHfQN-6379" value="5" style="rounded=0;whiteSpace=wrap;html=1;fontSize=32;" parent="DDAUUkxgNkph-y3eDjy--2" vertex="1">
          <mxGeometry x="840" y="770" width="50" height="50" as="geometry" />
        </mxCell>
        <mxCell id="761dnnyQ54j-Cl0NHfQN-6380" value="11" style="rounded=0;whiteSpace=wrap;html=1;fontSize=32;" parent="DDAUUkxgNkph-y3eDjy--2" vertex="1">
          <mxGeometry x="840" y="660" width="110" height="110" as="geometry" />
        </mxCell>
        <mxCell id="761dnnyQ54j-Cl0NHfQN-6381" value="68" style="rounded=0;whiteSpace=wrap;html=1;fontSize=32;" parent="DDAUUkxgNkph-y3eDjy--2" vertex="1">
          <mxGeometry width="680" height="680" as="geometry" />
        </mxCell>
        <mxCell id="761dnnyQ54j-Cl0NHfQN-6382" value="66" style="rounded=0;whiteSpace=wrap;html=1;fontSize=32;" parent="DDAUUkxgNkph-y3eDjy--2" vertex="1">
          <mxGeometry x="680" width="660" height="660" as="geometry" />
        </mxCell>
        <mxCell id="DDAUUkxgNkph-y3eDjy--23" value="" style="group;flipV=1;" vertex="1" connectable="0" parent="1">
          <mxGeometry x="3520" y="1250" width="2500" height="2210" as="geometry" />
        </mxCell>
        <mxCell id="DDAUUkxgNkph-y3eDjy--5" value="95" style="rounded=0;whiteSpace=wrap;html=1;fontSize=32;" vertex="1" parent="DDAUUkxgNkph-y3eDjy--23">
          <mxGeometry y="1260" width="950" height="950" as="geometry" />
        </mxCell>
        <mxCell id="DDAUUkxgNkph-y3eDjy--6" value="20" style="rounded=0;whiteSpace=wrap;html=1;fontSize=32;" vertex="1" parent="DDAUUkxgNkph-y3eDjy--23">
          <mxGeometry x="950" y="1430" width="200" height="200" as="geometry" />
        </mxCell>
        <mxCell id="DDAUUkxgNkph-y3eDjy--7" value="23" style="rounded=0;whiteSpace=wrap;html=1;fontSize=32;" vertex="1" parent="DDAUUkxgNkph-y3eDjy--23">
          <mxGeometry x="1150" y="1400" width="230" height="230" as="geometry" />
        </mxCell>
        <mxCell id="DDAUUkxgNkph-y3eDjy--8" value="17" style="rounded=0;whiteSpace=wrap;html=1;fontSize=32;aspect=fixed;" vertex="1" parent="DDAUUkxgNkph-y3eDjy--23">
          <mxGeometry x="950" y="1260" width="170" height="170" as="geometry" />
        </mxCell>
        <mxCell id="DDAUUkxgNkph-y3eDjy--9" value="3" style="rounded=0;whiteSpace=wrap;html=1;fontSize=32;aspect=fixed;" vertex="1" parent="DDAUUkxgNkph-y3eDjy--23">
          <mxGeometry x="1120" y="1400" width="30" height="30" as="geometry" />
        </mxCell>
        <mxCell id="DDAUUkxgNkph-y3eDjy--10" value="15" style="rounded=0;whiteSpace=wrap;html=1;fontSize=32;" vertex="1" parent="DDAUUkxgNkph-y3eDjy--23">
          <mxGeometry x="1380" y="1480" width="150" height="150" as="geometry" />
        </mxCell>
        <mxCell id="DDAUUkxgNkph-y3eDjy--11" value="97" style="rounded=0;whiteSpace=wrap;html=1;fontSize=32;aspect=fixed;" vertex="1" parent="DDAUUkxgNkph-y3eDjy--23">
          <mxGeometry x="1530" y="1240" width="970" height="970" as="geometry" />
        </mxCell>
        <mxCell id="DDAUUkxgNkph-y3eDjy--12" value="8" style="rounded=0;whiteSpace=wrap;html=1;fontSize=32;aspect=fixed;" vertex="1" parent="DDAUUkxgNkph-y3eDjy--23">
          <mxGeometry x="1380" y="1400" width="80" height="80" as="geometry" />
        </mxCell>
        <mxCell id="DDAUUkxgNkph-y3eDjy--13" value="7" style="rounded=0;whiteSpace=wrap;html=1;fontSize=32;aspect=fixed;" vertex="1" parent="DDAUUkxgNkph-y3eDjy--23">
          <mxGeometry x="1460" y="1410" width="70" height="70" as="geometry" />
        </mxCell>
        <mxCell id="DDAUUkxgNkph-y3eDjy--14" value="1" style="rounded=0;whiteSpace=wrap;html=1;fontSize=32;aspect=fixed;" vertex="1" parent="DDAUUkxgNkph-y3eDjy--23">
          <mxGeometry x="1460" y="1400" width="10" height="10" as="geometry" />
        </mxCell>
        <mxCell id="DDAUUkxgNkph-y3eDjy--15" value="6" style="rounded=0;whiteSpace=wrap;html=1;fontSize=32;aspect=fixed;" vertex="1" parent="DDAUUkxgNkph-y3eDjy--23">
          <mxGeometry x="1470" y="1350" width="60" height="60" as="geometry" />
        </mxCell>
        <mxCell id="DDAUUkxgNkph-y3eDjy--16" value="14" style="rounded=0;whiteSpace=wrap;html=1;fontSize=32;aspect=fixed;" vertex="1" parent="DDAUUkxgNkph-y3eDjy--23">
          <mxGeometry x="1120" y="1260" width="140" height="140" as="geometry" />
        </mxCell>
        <mxCell id="DDAUUkxgNkph-y3eDjy--17" value="16" style="rounded=0;whiteSpace=wrap;html=1;fontSize=32;aspect=fixed;" vertex="1" parent="DDAUUkxgNkph-y3eDjy--23">
          <mxGeometry x="1260" y="1240" width="160" height="160" as="geometry" />
        </mxCell>
        <mxCell id="DDAUUkxgNkph-y3eDjy--18" value="5" style="rounded=0;whiteSpace=wrap;html=1;fontSize=32;aspect=fixed;" vertex="1" parent="DDAUUkxgNkph-y3eDjy--23">
          <mxGeometry x="1420" y="1350" width="50" height="50" as="geometry" />
        </mxCell>
        <mxCell id="DDAUUkxgNkph-y3eDjy--19" value="11" style="rounded=0;whiteSpace=wrap;html=1;fontSize=32;aspect=fixed;" vertex="1" parent="DDAUUkxgNkph-y3eDjy--23">
          <mxGeometry x="1420" y="1240" width="110" height="110" as="geometry" />
        </mxCell>
        <mxCell id="DDAUUkxgNkph-y3eDjy--20" value="126" style="rounded=0;whiteSpace=wrap;html=1;fontSize=32;aspect=fixed;" vertex="1" parent="DDAUUkxgNkph-y3eDjy--23">
          <mxGeometry width="1260" height="1260" as="geometry" />
        </mxCell>
        <mxCell id="DDAUUkxgNkph-y3eDjy--21" value="124" style="rounded=0;whiteSpace=wrap;html=1;fontSize=32;aspect=fixed;" vertex="1" parent="DDAUUkxgNkph-y3eDjy--23">
          <mxGeometry x="1260" width="1240" height="1240" as="geometry" />
        </mxCell>
        <mxCell id="DDAUUkxgNkph-y3eDjy--22" value="58" style="rounded=0;whiteSpace=wrap;html=1;fontSize=32;aspect=fixed;" vertex="1" parent="DDAUUkxgNkph-y3eDjy--23">
          <mxGeometry x="950" y="1630" width="580" height="580" as="geometry" />
        </mxCell>
        <mxCell id="DDAUUkxgNkph-y3eDjy--24" value="" style="group;flipV=1;" vertex="1" connectable="0" parent="1">
          <mxGeometry x="1440" y="3110" width="1340" height="1300" as="geometry" />
        </mxCell>
        <mxCell id="761dnnyQ54j-Cl0NHfQN-8105" value="56" style="rounded=0;whiteSpace=wrap;html=1;fontSize=32;" parent="DDAUUkxgNkph-y3eDjy--24" vertex="1">
          <mxGeometry y="740" width="560" height="560" as="geometry" />
        </mxCell>
        <mxCell id="761dnnyQ54j-Cl0NHfQN-8106" value="37" style="rounded=0;whiteSpace=wrap;html=1;fontSize=32;" parent="DDAUUkxgNkph-y3eDjy--24" vertex="1">
          <mxGeometry x="560" y="930" width="370" height="370" as="geometry" />
        </mxCell>
        <mxCell id="761dnnyQ54j-Cl0NHfQN-8107" value="41" style="rounded=0;whiteSpace=wrap;html=1;fontSize=32;" parent="DDAUUkxgNkph-y3eDjy--24" vertex="1">
          <mxGeometry x="930" y="890" width="410" height="410" as="geometry" />
        </mxCell>
        <mxCell id="761dnnyQ54j-Cl0NHfQN-8108" value="19" style="rounded=0;whiteSpace=wrap;html=1;fontSize=32;" parent="DDAUUkxgNkph-y3eDjy--24" vertex="1">
          <mxGeometry x="560" y="740" width="190" height="190" as="geometry" />
        </mxCell>
        <mxCell id="761dnnyQ54j-Cl0NHfQN-8109" value="14" style="rounded=0;whiteSpace=wrap;html=1;fontSize=32;" parent="DDAUUkxgNkph-y3eDjy--24" vertex="1">
          <mxGeometry x="750" y="790" width="140" height="140" as="geometry" />
        </mxCell>
        <mxCell id="761dnnyQ54j-Cl0NHfQN-8110" value="4" style="rounded=0;whiteSpace=wrap;html=1;fontSize=32;" parent="DDAUUkxgNkph-y3eDjy--24" vertex="1">
          <mxGeometry x="890" y="890" width="40" height="40" as="geometry" />
        </mxCell>
        <mxCell id="761dnnyQ54j-Cl0NHfQN-8111" value="16" style="rounded=0;whiteSpace=wrap;html=1;fontSize=32;" parent="DDAUUkxgNkph-y3eDjy--24" vertex="1">
          <mxGeometry x="890" y="730" width="160" height="160" as="geometry" />
        </mxCell>
        <mxCell id="761dnnyQ54j-Cl0NHfQN-8112" value="5" style="rounded=0;whiteSpace=wrap;html=1;fontSize=32;" parent="DDAUUkxgNkph-y3eDjy--24" vertex="1">
          <mxGeometry x="750" y="740" width="50" height="50" as="geometry" />
        </mxCell>
        <mxCell id="761dnnyQ54j-Cl0NHfQN-8113" value="9" style="rounded=0;whiteSpace=wrap;html=1;fontSize=32;" parent="DDAUUkxgNkph-y3eDjy--24" vertex="1">
          <mxGeometry x="800" y="700" width="90" height="90" as="geometry" />
        </mxCell>
        <mxCell id="761dnnyQ54j-Cl0NHfQN-8114" value="29" style="rounded=0;whiteSpace=wrap;html=1;fontSize=32;" parent="DDAUUkxgNkph-y3eDjy--24" vertex="1">
          <mxGeometry x="1050" y="600" width="290" height="290" as="geometry" />
        </mxCell>
        <mxCell id="761dnnyQ54j-Cl0NHfQN-8115" value="3" style="rounded=0;whiteSpace=wrap;html=1;fontSize=32;" parent="DDAUUkxgNkph-y3eDjy--24" vertex="1">
          <mxGeometry x="890" y="700" width="30" height="30" as="geometry" />
        </mxCell>
        <mxCell id="761dnnyQ54j-Cl0NHfQN-8116" value="13" style="rounded=0;whiteSpace=wrap;html=1;fontSize=32;" parent="DDAUUkxgNkph-y3eDjy--24" vertex="1">
          <mxGeometry x="920" y="600" width="130" height="130" as="geometry" />
        </mxCell>
        <mxCell id="761dnnyQ54j-Cl0NHfQN-8117" value="74" style="rounded=0;whiteSpace=wrap;html=1;fontSize=32;" parent="DDAUUkxgNkph-y3eDjy--24" vertex="1">
          <mxGeometry width="740" height="740" as="geometry" />
        </mxCell>
        <mxCell id="761dnnyQ54j-Cl0NHfQN-8118" value="6" style="rounded=0;whiteSpace=wrap;html=1;fontSize=32;" parent="DDAUUkxgNkph-y3eDjy--24" vertex="1">
          <mxGeometry x="740" y="680" width="60" height="60" as="geometry" />
        </mxCell>
        <mxCell id="761dnnyQ54j-Cl0NHfQN-8119" value="2" style="rounded=0;whiteSpace=wrap;html=1;fontSize=32;" parent="DDAUUkxgNkph-y3eDjy--24" vertex="1">
          <mxGeometry x="800" y="680" width="20" height="20" as="geometry" />
        </mxCell>
        <mxCell id="761dnnyQ54j-Cl0NHfQN-8120" value="10" style="rounded=0;whiteSpace=wrap;html=1;fontSize=32;" parent="DDAUUkxgNkph-y3eDjy--24" vertex="1">
          <mxGeometry x="820" y="600" width="100" height="100" as="geometry" />
        </mxCell>
        <mxCell id="761dnnyQ54j-Cl0NHfQN-8121" value="8" style="rounded=0;whiteSpace=wrap;html=1;fontSize=32;" parent="DDAUUkxgNkph-y3eDjy--24" vertex="1">
          <mxGeometry x="740" y="600" width="80" height="80" as="geometry" />
        </mxCell>
        <mxCell id="761dnnyQ54j-Cl0NHfQN-8122" value="60" style="rounded=0;whiteSpace=wrap;html=1;fontSize=32;" parent="DDAUUkxgNkph-y3eDjy--24" vertex="1">
          <mxGeometry x="740" width="600" height="600" as="geometry" />
        </mxCell>
        <mxCell id="DDAUUkxgNkph-y3eDjy--25" value="" style="group;flipV=1;" vertex="1" connectable="0" parent="1">
          <mxGeometry x="1467.5" y="4650" width="1340" height="1300" as="geometry" />
        </mxCell>
        <mxCell id="761dnnyQ54j-Cl0NHfQN-17670" value="29" style="rounded=0;whiteSpace=wrap;html=1;fontSize=32;" parent="DDAUUkxgNkph-y3eDjy--25" vertex="1">
          <mxGeometry y="1010" width="290" height="290" as="geometry" />
        </mxCell>
        <mxCell id="761dnnyQ54j-Cl0NHfQN-17671" value="31" style="rounded=0;whiteSpace=wrap;html=1;fontSize=32;" parent="DDAUUkxgNkph-y3eDjy--25" vertex="1">
          <mxGeometry x="290" y="990" width="310" height="310" as="geometry" />
        </mxCell>
        <mxCell id="761dnnyQ54j-Cl0NHfQN-17672" value="27" style="rounded=0;whiteSpace=wrap;html=1;fontSize=32;" parent="DDAUUkxgNkph-y3eDjy--25" vertex="1">
          <mxGeometry y="740" width="270" height="270" as="geometry" />
        </mxCell>
        <mxCell id="761dnnyQ54j-Cl0NHfQN-17673" value="2" style="rounded=0;whiteSpace=wrap;html=1;fontSize=32;" parent="DDAUUkxgNkph-y3eDjy--25" vertex="1">
          <mxGeometry x="270" y="990" width="20" height="20" as="geometry" />
        </mxCell>
        <mxCell id="761dnnyQ54j-Cl0NHfQN-17674" value="30" style="rounded=0;whiteSpace=wrap;html=1;fontSize=32;" parent="DDAUUkxgNkph-y3eDjy--25" vertex="1">
          <mxGeometry x="600" y="1000" width="300" height="300" as="geometry" />
        </mxCell>
        <mxCell id="761dnnyQ54j-Cl0NHfQN-17675" value="44" style="rounded=0;whiteSpace=wrap;html=1;fontSize=32;" parent="DDAUUkxgNkph-y3eDjy--25" vertex="1">
          <mxGeometry x="900" y="860" width="440" height="440" as="geometry" />
        </mxCell>
        <mxCell id="761dnnyQ54j-Cl0NHfQN-17676" value="9" style="rounded=0;whiteSpace=wrap;html=1;fontSize=32;" parent="DDAUUkxgNkph-y3eDjy--25" vertex="1">
          <mxGeometry x="600" y="910" width="90" height="90" as="geometry" />
        </mxCell>
        <mxCell id="761dnnyQ54j-Cl0NHfQN-17677" value="21" style="rounded=0;whiteSpace=wrap;html=1;fontSize=32;" parent="DDAUUkxgNkph-y3eDjy--25" vertex="1">
          <mxGeometry x="690" y="790" width="210" height="210" as="geometry" />
        </mxCell>
        <mxCell id="761dnnyQ54j-Cl0NHfQN-17678" value="25" style="rounded=0;whiteSpace=wrap;html=1;fontSize=32;" parent="DDAUUkxgNkph-y3eDjy--25" vertex="1">
          <mxGeometry x="270" y="740" width="250" height="250" as="geometry" />
        </mxCell>
        <mxCell id="761dnnyQ54j-Cl0NHfQN-17679" value="8" style="rounded=0;whiteSpace=wrap;html=1;fontSize=32;" parent="DDAUUkxgNkph-y3eDjy--25" vertex="1">
          <mxGeometry x="520" y="910" width="80" height="80" as="geometry" />
        </mxCell>
        <mxCell id="761dnnyQ54j-Cl0NHfQN-17680" value="17" style="rounded=0;whiteSpace=wrap;html=1;fontSize=32;" parent="DDAUUkxgNkph-y3eDjy--25" vertex="1">
          <mxGeometry x="520" y="740" width="170" height="170" as="geometry" />
        </mxCell>
        <mxCell id="761dnnyQ54j-Cl0NHfQN-17681" value="7" style="rounded=0;whiteSpace=wrap;html=1;fontSize=32;" parent="DDAUUkxgNkph-y3eDjy--25" vertex="1">
          <mxGeometry x="900" y="790" width="70" height="70" as="geometry" />
        </mxCell>
        <mxCell id="761dnnyQ54j-Cl0NHfQN-17682" value="11" style="rounded=0;whiteSpace=wrap;html=1;fontSize=32;" parent="DDAUUkxgNkph-y3eDjy--25" vertex="1">
          <mxGeometry x="970" y="750" width="110" height="110" as="geometry" />
        </mxCell>
        <mxCell id="761dnnyQ54j-Cl0NHfQN-17683" value="26" style="rounded=0;whiteSpace=wrap;html=1;fontSize=32;" parent="DDAUUkxgNkph-y3eDjy--25" vertex="1">
          <mxGeometry x="1080" y="600" width="260" height="260" as="geometry" />
        </mxCell>
        <mxCell id="761dnnyQ54j-Cl0NHfQN-17684" value="5" style="rounded=0;whiteSpace=wrap;html=1;fontSize=32;" parent="DDAUUkxgNkph-y3eDjy--25" vertex="1">
          <mxGeometry x="690" y="740" width="50" height="50" as="geometry" />
        </mxCell>
        <mxCell id="761dnnyQ54j-Cl0NHfQN-17685" value="19" style="rounded=0;whiteSpace=wrap;html=1;fontSize=32;" parent="DDAUUkxgNkph-y3eDjy--25" vertex="1">
          <mxGeometry x="740" y="600" width="190" height="190" as="geometry" />
        </mxCell>
        <mxCell id="761dnnyQ54j-Cl0NHfQN-17686" value="4" style="rounded=0;whiteSpace=wrap;html=1;fontSize=32;" parent="DDAUUkxgNkph-y3eDjy--25" vertex="1">
          <mxGeometry x="930" y="750" width="40" height="40" as="geometry" />
        </mxCell>
        <mxCell id="761dnnyQ54j-Cl0NHfQN-17687" value="15" style="rounded=0;whiteSpace=wrap;html=1;fontSize=32;" parent="DDAUUkxgNkph-y3eDjy--25" vertex="1">
          <mxGeometry x="930" y="600" width="150" height="150" as="geometry" />
        </mxCell>
        <mxCell id="761dnnyQ54j-Cl0NHfQN-17688" value="74" style="rounded=0;whiteSpace=wrap;html=1;fontSize=32;" parent="DDAUUkxgNkph-y3eDjy--25" vertex="1">
          <mxGeometry width="740" height="740" as="geometry" />
        </mxCell>
        <mxCell id="761dnnyQ54j-Cl0NHfQN-17689" value="60" style="rounded=0;whiteSpace=wrap;html=1;fontSize=32;" parent="DDAUUkxgNkph-y3eDjy--25" vertex="1">
          <mxGeometry x="740" width="600" height="600" as="geometry" />
        </mxCell>
        <mxCell id="DDAUUkxgNkph-y3eDjy--26" value="" style="group;flipV=1;" vertex="1" connectable="0" parent="1">
          <mxGeometry x="1475" y="6100" width="1340" height="1250" as="geometry" />
        </mxCell>
        <mxCell id="761dnnyQ54j-Cl0NHfQN-23110" value="54" style="rounded=0;whiteSpace=wrap;html=1;fontSize=32;" parent="DDAUUkxgNkph-y3eDjy--26" vertex="1">
          <mxGeometry y="710" width="540" height="540" as="geometry" />
        </mxCell>
        <mxCell id="761dnnyQ54j-Cl0NHfQN-23111" value="37" style="rounded=0;whiteSpace=wrap;html=1;fontSize=32;" parent="DDAUUkxgNkph-y3eDjy--26" vertex="1">
          <mxGeometry x="540" y="880" width="370" height="370" as="geometry" />
        </mxCell>
        <mxCell id="761dnnyQ54j-Cl0NHfQN-23112" value="43" style="rounded=0;whiteSpace=wrap;html=1;fontSize=32;" parent="DDAUUkxgNkph-y3eDjy--26" vertex="1">
          <mxGeometry x="910" y="820" width="430" height="430" as="geometry" />
        </mxCell>
        <mxCell id="761dnnyQ54j-Cl0NHfQN-23113" value="17" style="rounded=0;whiteSpace=wrap;html=1;fontSize=32;" parent="DDAUUkxgNkph-y3eDjy--26" vertex="1">
          <mxGeometry x="540" y="710" width="170" height="170" as="geometry" />
        </mxCell>
        <mxCell id="761dnnyQ54j-Cl0NHfQN-23114" value="20" style="rounded=0;whiteSpace=wrap;html=1;fontSize=32;" parent="DDAUUkxgNkph-y3eDjy--26" vertex="1">
          <mxGeometry x="710" y="680" width="200" height="200" as="geometry" />
        </mxCell>
        <mxCell id="761dnnyQ54j-Cl0NHfQN-23115" value="14" style="rounded=0;whiteSpace=wrap;html=1;fontSize=32;" parent="DDAUUkxgNkph-y3eDjy--26" vertex="1">
          <mxGeometry x="910" y="680" width="140" height="140" as="geometry" />
        </mxCell>
        <mxCell id="761dnnyQ54j-Cl0NHfQN-23116" value="29" style="rounded=0;whiteSpace=wrap;html=1;fontSize=32;" parent="DDAUUkxgNkph-y3eDjy--26" vertex="1">
          <mxGeometry x="1050" y="530" width="290" height="290" as="geometry" />
        </mxCell>
        <mxCell id="761dnnyQ54j-Cl0NHfQN-23117" value="71" style="rounded=0;whiteSpace=wrap;html=1;fontSize=32;" parent="DDAUUkxgNkph-y3eDjy--26" vertex="1">
          <mxGeometry width="710" height="710" as="geometry" />
        </mxCell>
        <mxCell id="761dnnyQ54j-Cl0NHfQN-23118" value="19" style="rounded=0;whiteSpace=wrap;html=1;fontSize=32;" parent="DDAUUkxgNkph-y3eDjy--26" vertex="1">
          <mxGeometry x="710" y="490" width="190" height="190" as="geometry" />
        </mxCell>
        <mxCell id="761dnnyQ54j-Cl0NHfQN-23119" value="15" style="rounded=0;whiteSpace=wrap;html=1;fontSize=32;" parent="DDAUUkxgNkph-y3eDjy--26" vertex="1">
          <mxGeometry x="900" y="530" width="150" height="150" as="geometry" />
        </mxCell>
        <mxCell id="761dnnyQ54j-Cl0NHfQN-23120" value="4" style="rounded=0;whiteSpace=wrap;html=1;fontSize=32;" parent="DDAUUkxgNkph-y3eDjy--26" vertex="1">
          <mxGeometry x="900" y="490" width="40" height="40" as="geometry" />
        </mxCell>
        <mxCell id="761dnnyQ54j-Cl0NHfQN-23121" value="9" style="rounded=0;whiteSpace=wrap;html=1;fontSize=32;" parent="DDAUUkxgNkph-y3eDjy--26" vertex="1">
          <mxGeometry x="940" y="440" width="90" height="90" as="geometry" />
        </mxCell>
        <mxCell id="761dnnyQ54j-Cl0NHfQN-23122" value="18" style="rounded=0;whiteSpace=wrap;html=1;fontSize=32;" parent="DDAUUkxgNkph-y3eDjy--26" vertex="1">
          <mxGeometry x="710" y="310" width="180" height="180" as="geometry" />
        </mxCell>
        <mxCell id="761dnnyQ54j-Cl0NHfQN-23123" value="5" style="rounded=0;whiteSpace=wrap;html=1;fontSize=32;" parent="DDAUUkxgNkph-y3eDjy--26" vertex="1">
          <mxGeometry x="890" y="440" width="50" height="50" as="geometry" />
        </mxCell>
        <mxCell id="761dnnyQ54j-Cl0NHfQN-23124" value="10" style="rounded=0;whiteSpace=wrap;html=1;fontSize=32;" parent="DDAUUkxgNkph-y3eDjy--26" vertex="1">
          <mxGeometry x="1030" y="430" width="100" height="100" as="geometry" />
        </mxCell>
        <mxCell id="761dnnyQ54j-Cl0NHfQN-23125" value="13" style="rounded=0;whiteSpace=wrap;html=1;fontSize=32;" parent="DDAUUkxgNkph-y3eDjy--26" vertex="1">
          <mxGeometry x="890" y="310" width="130" height="130" as="geometry" />
        </mxCell>
        <mxCell id="761dnnyQ54j-Cl0NHfQN-23126" value="1" style="rounded=0;whiteSpace=wrap;html=1;fontSize=32;" parent="DDAUUkxgNkph-y3eDjy--26" vertex="1">
          <mxGeometry x="1020" y="430" width="10" height="10" as="geometry" />
        </mxCell>
        <mxCell id="761dnnyQ54j-Cl0NHfQN-23127" value="21" style="rounded=0;whiteSpace=wrap;html=1;fontSize=32;" parent="DDAUUkxgNkph-y3eDjy--26" vertex="1">
          <mxGeometry x="1130" y="320" width="210" height="210" as="geometry" />
        </mxCell>
        <mxCell id="761dnnyQ54j-Cl0NHfQN-23128" value="11" style="rounded=0;whiteSpace=wrap;html=1;fontSize=32;" parent="DDAUUkxgNkph-y3eDjy--26" vertex="1">
          <mxGeometry x="1020" y="320" width="110" height="110" as="geometry" />
        </mxCell>
        <mxCell id="761dnnyQ54j-Cl0NHfQN-23129" value="32" style="rounded=0;whiteSpace=wrap;html=1;fontSize=32;" parent="DDAUUkxgNkph-y3eDjy--26" vertex="1">
          <mxGeometry x="1020" width="320" height="320" as="geometry" />
        </mxCell>
        <mxCell id="761dnnyQ54j-Cl0NHfQN-23130" value="31" style="rounded=0;whiteSpace=wrap;html=1;fontSize=32;" parent="DDAUUkxgNkph-y3eDjy--26" vertex="1">
          <mxGeometry x="710" width="310" height="310" as="geometry" />
        </mxCell>
        <mxCell id="DDAUUkxgNkph-y3eDjy--27" value="" style="group;flipV=1;" vertex="1" connectable="0" parent="1">
          <mxGeometry x="1467.5" y="7510" width="1340" height="1200" as="geometry" />
        </mxCell>
        <mxCell id="761dnnyQ54j-Cl0NHfQN-39237" value="36" style="rounded=0;whiteSpace=wrap;html=1;fontSize=32;" parent="DDAUUkxgNkph-y3eDjy--27" vertex="1">
          <mxGeometry y="840" width="360" height="360" as="geometry" />
        </mxCell>
        <mxCell id="761dnnyQ54j-Cl0NHfQN-39238" value="27" style="rounded=0;whiteSpace=wrap;html=1;fontSize=32;" parent="DDAUUkxgNkph-y3eDjy--27" vertex="1">
          <mxGeometry x="360" y="930" width="270" height="270" as="geometry" />
        </mxCell>
        <mxCell id="761dnnyQ54j-Cl0NHfQN-39239" value="39" style="rounded=0;whiteSpace=wrap;html=1;fontSize=32;" parent="DDAUUkxgNkph-y3eDjy--27" vertex="1">
          <mxGeometry x="630" y="810" width="390" height="390" as="geometry" />
        </mxCell>
        <mxCell id="761dnnyQ54j-Cl0NHfQN-39240" value="15" style="rounded=0;whiteSpace=wrap;html=1;fontSize=32;" parent="DDAUUkxgNkph-y3eDjy--27" vertex="1">
          <mxGeometry x="360" y="780" width="150" height="150" as="geometry" />
        </mxCell>
        <mxCell id="761dnnyQ54j-Cl0NHfQN-39241" value="12" style="rounded=0;whiteSpace=wrap;html=1;fontSize=32;" parent="DDAUUkxgNkph-y3eDjy--27" vertex="1">
          <mxGeometry x="510" y="810" width="120" height="120" as="geometry" />
        </mxCell>
        <mxCell id="761dnnyQ54j-Cl0NHfQN-39242" value="32" style="rounded=0;whiteSpace=wrap;html=1;fontSize=32;" parent="DDAUUkxgNkph-y3eDjy--27" vertex="1">
          <mxGeometry x="1020" y="880" width="320" height="320" as="geometry" />
        </mxCell>
        <mxCell id="761dnnyQ54j-Cl0NHfQN-39243" value="7" style="rounded=0;whiteSpace=wrap;html=1;fontSize=32;" parent="DDAUUkxgNkph-y3eDjy--27" vertex="1">
          <mxGeometry x="1020" y="810" width="70" height="70" as="geometry" />
        </mxCell>
        <mxCell id="761dnnyQ54j-Cl0NHfQN-39244" value="25" style="rounded=0;whiteSpace=wrap;html=1;fontSize=32;" parent="DDAUUkxgNkph-y3eDjy--27" vertex="1">
          <mxGeometry x="1090" y="630" width="250" height="250" as="geometry" />
        </mxCell>
        <mxCell id="761dnnyQ54j-Cl0NHfQN-39245" value="30" style="rounded=0;whiteSpace=wrap;html=1;fontSize=32;" parent="DDAUUkxgNkph-y3eDjy--27" vertex="1">
          <mxGeometry y="540" width="300" height="300" as="geometry" />
        </mxCell>
        <mxCell id="761dnnyQ54j-Cl0NHfQN-39246" value="6" style="rounded=0;whiteSpace=wrap;html=1;fontSize=32;" parent="DDAUUkxgNkph-y3eDjy--27" vertex="1">
          <mxGeometry x="300" y="780" width="60" height="60" as="geometry" />
        </mxCell>
        <mxCell id="761dnnyQ54j-Cl0NHfQN-39247" value="3" style="rounded=0;whiteSpace=wrap;html=1;fontSize=32;" parent="DDAUUkxgNkph-y3eDjy--27" vertex="1">
          <mxGeometry x="510" y="780" width="30" height="30" as="geometry" />
        </mxCell>
        <mxCell id="761dnnyQ54j-Cl0NHfQN-39248" value="38" style="rounded=0;whiteSpace=wrap;html=1;fontSize=32;" parent="DDAUUkxgNkph-y3eDjy--27" vertex="1">
          <mxGeometry x="540" y="430" width="380" height="380" as="geometry" />
        </mxCell>
        <mxCell id="761dnnyQ54j-Cl0NHfQN-39249" value="17" style="rounded=0;whiteSpace=wrap;html=1;fontSize=32;" parent="DDAUUkxgNkph-y3eDjy--27" vertex="1">
          <mxGeometry x="920" y="640" width="170" height="170" as="geometry" />
        </mxCell>
        <mxCell id="761dnnyQ54j-Cl0NHfQN-39250" value="16" style="rounded=0;whiteSpace=wrap;html=1;fontSize=32;" parent="DDAUUkxgNkph-y3eDjy--27" vertex="1">
          <mxGeometry x="920" y="480" width="160" height="160" as="geometry" />
        </mxCell>
        <mxCell id="761dnnyQ54j-Cl0NHfQN-39251" value="1" style="rounded=0;whiteSpace=wrap;html=1;fontSize=32;" parent="DDAUUkxgNkph-y3eDjy--27" vertex="1">
          <mxGeometry x="1080" y="630" width="10" height="10" as="geometry" />
        </mxCell>
        <mxCell id="761dnnyQ54j-Cl0NHfQN-39252" value="24" style="rounded=0;whiteSpace=wrap;html=1;fontSize=32;" parent="DDAUUkxgNkph-y3eDjy--27" vertex="1">
          <mxGeometry x="300" y="540" width="240" height="240" as="geometry" />
        </mxCell>
        <mxCell id="761dnnyQ54j-Cl0NHfQN-39253" value="26" style="rounded=0;whiteSpace=wrap;html=1;fontSize=32;" parent="DDAUUkxgNkph-y3eDjy--27" vertex="1">
          <mxGeometry x="1080" y="370" width="260" height="260" as="geometry" />
        </mxCell>
        <mxCell id="761dnnyQ54j-Cl0NHfQN-39254" value="5" style="rounded=0;whiteSpace=wrap;html=1;fontSize=32;" parent="DDAUUkxgNkph-y3eDjy--27" vertex="1">
          <mxGeometry x="920" y="430" width="50" height="50" as="geometry" />
        </mxCell>
        <mxCell id="761dnnyQ54j-Cl0NHfQN-39255" value="11" style="rounded=0;whiteSpace=wrap;html=1;fontSize=32;" parent="DDAUUkxgNkph-y3eDjy--27" vertex="1">
          <mxGeometry x="970" y="370" width="110" height="110" as="geometry" />
        </mxCell>
        <mxCell id="761dnnyQ54j-Cl0NHfQN-39256" value="54" style="rounded=0;whiteSpace=wrap;html=1;fontSize=32;" parent="DDAUUkxgNkph-y3eDjy--27" vertex="1">
          <mxGeometry width="540" height="540" as="geometry" />
        </mxCell>
        <mxCell id="761dnnyQ54j-Cl0NHfQN-39257" value="43" style="rounded=0;whiteSpace=wrap;html=1;fontSize=32;" parent="DDAUUkxgNkph-y3eDjy--27" vertex="1">
          <mxGeometry x="540" width="430" height="430" as="geometry" />
        </mxCell>
        <mxCell id="761dnnyQ54j-Cl0NHfQN-39258" value="37" style="rounded=0;whiteSpace=wrap;html=1;fontSize=32;" parent="DDAUUkxgNkph-y3eDjy--27" vertex="1">
          <mxGeometry x="970" width="370" height="370" as="geometry" />
        </mxCell>
        <mxCell id="DDAUUkxgNkph-y3eDjy--28" value="" style="group;flipV=1;" vertex="1" connectable="0" parent="1">
          <mxGeometry x="1475" y="8880" width="1340" height="1280" as="geometry" />
        </mxCell>
        <mxCell id="761dnnyQ54j-Cl0NHfQN-39329" value="42" style="rounded=0;whiteSpace=wrap;html=1;fontSize=32;" parent="DDAUUkxgNkph-y3eDjy--28" vertex="1">
          <mxGeometry y="860" width="420" height="420" as="geometry" />
        </mxCell>
        <mxCell id="761dnnyQ54j-Cl0NHfQN-39330" value="47" style="rounded=0;whiteSpace=wrap;html=1;fontSize=32;" parent="DDAUUkxgNkph-y3eDjy--28" vertex="1">
          <mxGeometry x="420" y="810" width="470" height="470" as="geometry" />
        </mxCell>
        <mxCell id="761dnnyQ54j-Cl0NHfQN-39331" value="37" style="rounded=0;whiteSpace=wrap;html=1;fontSize=32;" parent="DDAUUkxgNkph-y3eDjy--28" vertex="1">
          <mxGeometry y="490" width="370" height="370" as="geometry" />
        </mxCell>
        <mxCell id="761dnnyQ54j-Cl0NHfQN-39332" value="5" style="rounded=0;whiteSpace=wrap;html=1;fontSize=32;" parent="DDAUUkxgNkph-y3eDjy--28" vertex="1">
          <mxGeometry x="370" y="810" width="50" height="50" as="geometry" />
        </mxCell>
        <mxCell id="761dnnyQ54j-Cl0NHfQN-39333" value="45" style="rounded=0;whiteSpace=wrap;html=1;fontSize=32;" parent="DDAUUkxgNkph-y3eDjy--28" vertex="1">
          <mxGeometry x="890" y="830" width="450" height="450" as="geometry" />
        </mxCell>
        <mxCell id="761dnnyQ54j-Cl0NHfQN-39334" value="20" style="rounded=0;whiteSpace=wrap;html=1;fontSize=32;" parent="DDAUUkxgNkph-y3eDjy--28" vertex="1">
          <mxGeometry x="890" y="630" width="200" height="200" as="geometry" />
        </mxCell>
        <mxCell id="761dnnyQ54j-Cl0NHfQN-39335" value="25" style="rounded=0;whiteSpace=wrap;html=1;fontSize=32;" parent="DDAUUkxgNkph-y3eDjy--28" vertex="1">
          <mxGeometry x="1090" y="580" width="250" height="250" as="geometry" />
        </mxCell>
        <mxCell id="761dnnyQ54j-Cl0NHfQN-39336" value="21" style="rounded=0;whiteSpace=wrap;html=1;fontSize=32;" parent="DDAUUkxgNkph-y3eDjy--28" vertex="1">
          <mxGeometry x="370" y="600" width="210" height="210" as="geometry" />
        </mxCell>
        <mxCell id="761dnnyQ54j-Cl0NHfQN-39337" value="31" style="rounded=0;whiteSpace=wrap;html=1;fontSize=32;" parent="DDAUUkxgNkph-y3eDjy--28" vertex="1">
          <mxGeometry x="580" y="500" width="310" height="310" as="geometry" />
        </mxCell>
        <mxCell id="761dnnyQ54j-Cl0NHfQN-39338" value="13" style="rounded=0;whiteSpace=wrap;html=1;fontSize=32;" parent="DDAUUkxgNkph-y3eDjy--28" vertex="1">
          <mxGeometry x="890" y="500" width="130" height="130" as="geometry" />
        </mxCell>
        <mxCell id="761dnnyQ54j-Cl0NHfQN-39339" value="7" style="rounded=0;whiteSpace=wrap;html=1;fontSize=32;" parent="DDAUUkxgNkph-y3eDjy--28" vertex="1">
          <mxGeometry x="1020" y="560" width="70" height="70" as="geometry" />
        </mxCell>
        <mxCell id="761dnnyQ54j-Cl0NHfQN-39340" value="11" style="rounded=0;whiteSpace=wrap;html=1;fontSize=32;" parent="DDAUUkxgNkph-y3eDjy--28" vertex="1">
          <mxGeometry x="370" y="490" width="110" height="110" as="geometry" />
        </mxCell>
        <mxCell id="761dnnyQ54j-Cl0NHfQN-39341" value="10" style="rounded=0;whiteSpace=wrap;html=1;fontSize=32;" parent="DDAUUkxgNkph-y3eDjy--28" vertex="1">
          <mxGeometry x="480" y="500" width="100" height="100" as="geometry" />
        </mxCell>
        <mxCell id="761dnnyQ54j-Cl0NHfQN-39342" value="2" style="rounded=0;whiteSpace=wrap;html=1;fontSize=32;" parent="DDAUUkxgNkph-y3eDjy--28" vertex="1">
          <mxGeometry x="1090" y="560" width="20" height="20" as="geometry" />
        </mxCell>
        <mxCell id="761dnnyQ54j-Cl0NHfQN-39343" value="23" style="rounded=0;whiteSpace=wrap;html=1;fontSize=32;" parent="DDAUUkxgNkph-y3eDjy--28" vertex="1">
          <mxGeometry x="1110" y="350" width="230" height="230" as="geometry" />
        </mxCell>
        <mxCell id="761dnnyQ54j-Cl0NHfQN-39344" value="9" style="rounded=0;whiteSpace=wrap;html=1;fontSize=32;" parent="DDAUUkxgNkph-y3eDjy--28" vertex="1">
          <mxGeometry x="1020" y="470" width="90" height="90" as="geometry" />
        </mxCell>
        <mxCell id="761dnnyQ54j-Cl0NHfQN-39345" value="1" style="rounded=0;whiteSpace=wrap;html=1;fontSize=32;" parent="DDAUUkxgNkph-y3eDjy--28" vertex="1">
          <mxGeometry x="480" y="490" width="10" height="10" as="geometry" />
        </mxCell>
        <mxCell id="761dnnyQ54j-Cl0NHfQN-39346" value="50" style="rounded=0;whiteSpace=wrap;html=1;fontSize=32;" parent="DDAUUkxgNkph-y3eDjy--28" vertex="1">
          <mxGeometry x="490" width="500" height="500" as="geometry" />
        </mxCell>
        <mxCell id="761dnnyQ54j-Cl0NHfQN-39347" value="3" style="rounded=0;whiteSpace=wrap;html=1;fontSize=32;" parent="DDAUUkxgNkph-y3eDjy--28" vertex="1">
          <mxGeometry x="990" y="470" width="30" height="30" as="geometry" />
        </mxCell>
        <mxCell id="761dnnyQ54j-Cl0NHfQN-39348" value="12" style="rounded=0;whiteSpace=wrap;html=1;fontSize=32;" parent="DDAUUkxgNkph-y3eDjy--28" vertex="1">
          <mxGeometry x="990" y="350" width="120" height="120" as="geometry" />
        </mxCell>
        <mxCell id="761dnnyQ54j-Cl0NHfQN-39349" value="35" style="rounded=0;whiteSpace=wrap;html=1;fontSize=32;" parent="DDAUUkxgNkph-y3eDjy--28" vertex="1">
          <mxGeometry x="990" width="350" height="350" as="geometry" />
        </mxCell>
        <mxCell id="761dnnyQ54j-Cl0NHfQN-39350" value="49" style="rounded=0;whiteSpace=wrap;html=1;fontSize=32;" parent="DDAUUkxgNkph-y3eDjy--28" vertex="1">
          <mxGeometry width="490" height="490" as="geometry" />
        </mxCell>
        <mxCell id="DDAUUkxgNkph-y3eDjy--29" value="" style="group;flipV=1;" vertex="1" connectable="0" parent="1">
          <mxGeometry x="1460" y="10310" width="1340" height="1200" as="geometry" />
        </mxCell>
        <mxCell id="761dnnyQ54j-Cl0NHfQN-46856" value="39" style="rounded=0;whiteSpace=wrap;html=1;fontSize=32;" parent="DDAUUkxgNkph-y3eDjy--29" vertex="1">
          <mxGeometry y="810" width="390" height="390" as="geometry" />
        </mxCell>
        <mxCell id="761dnnyQ54j-Cl0NHfQN-46857" value="48" style="rounded=0;whiteSpace=wrap;html=1;fontSize=32;" parent="DDAUUkxgNkph-y3eDjy--29" vertex="1">
          <mxGeometry x="390" y="720" width="480" height="480" as="geometry" />
        </mxCell>
        <mxCell id="761dnnyQ54j-Cl0NHfQN-46858" value="30" style="rounded=0;whiteSpace=wrap;html=1;fontSize=32;" parent="DDAUUkxgNkph-y3eDjy--29" vertex="1">
          <mxGeometry y="510" width="300" height="300" as="geometry" />
        </mxCell>
        <mxCell id="761dnnyQ54j-Cl0NHfQN-46859" value="9" style="rounded=0;whiteSpace=wrap;html=1;fontSize=32;" parent="DDAUUkxgNkph-y3eDjy--29" vertex="1">
          <mxGeometry x="300" y="720" width="90" height="90" as="geometry" />
        </mxCell>
        <mxCell id="761dnnyQ54j-Cl0NHfQN-46860" value="22" style="rounded=0;whiteSpace=wrap;html=1;fontSize=32;" parent="DDAUUkxgNkph-y3eDjy--29" vertex="1">
          <mxGeometry x="870" y="980" width="220" height="220" as="geometry" />
        </mxCell>
        <mxCell id="761dnnyQ54j-Cl0NHfQN-46861" value="25" style="rounded=0;whiteSpace=wrap;html=1;fontSize=32;" parent="DDAUUkxgNkph-y3eDjy--29" vertex="1">
          <mxGeometry x="1090" y="950" width="250" height="250" as="geometry" />
        </mxCell>
        <mxCell id="761dnnyQ54j-Cl0NHfQN-46862" value="19" style="rounded=0;whiteSpace=wrap;html=1;fontSize=32;" parent="DDAUUkxgNkph-y3eDjy--29" vertex="1">
          <mxGeometry x="870" y="790" width="190" height="190" as="geometry" />
        </mxCell>
        <mxCell id="761dnnyQ54j-Cl0NHfQN-46863" value="3" style="rounded=0;whiteSpace=wrap;html=1;fontSize=32;" parent="DDAUUkxgNkph-y3eDjy--29" vertex="1">
          <mxGeometry x="1060" y="950" width="30" height="30" as="geometry" />
        </mxCell>
        <mxCell id="761dnnyQ54j-Cl0NHfQN-46864" value="28" style="rounded=0;whiteSpace=wrap;html=1;fontSize=32;" parent="DDAUUkxgNkph-y3eDjy--29" vertex="1">
          <mxGeometry x="1060" y="670" width="280" height="280" as="geometry" />
        </mxCell>
        <mxCell id="761dnnyQ54j-Cl0NHfQN-46865" value="7" style="rounded=0;whiteSpace=wrap;html=1;fontSize=32;" parent="DDAUUkxgNkph-y3eDjy--29" vertex="1">
          <mxGeometry x="870" y="720" width="70" height="70" as="geometry" />
        </mxCell>
        <mxCell id="761dnnyQ54j-Cl0NHfQN-46866" value="12" style="rounded=0;whiteSpace=wrap;html=1;fontSize=32;" parent="DDAUUkxgNkph-y3eDjy--29" vertex="1">
          <mxGeometry x="940" y="670" width="120" height="120" as="geometry" />
        </mxCell>
        <mxCell id="761dnnyQ54j-Cl0NHfQN-46867" value="21" style="rounded=0;whiteSpace=wrap;html=1;fontSize=32;" parent="DDAUUkxgNkph-y3eDjy--29" vertex="1">
          <mxGeometry x="300" y="510" width="210" height="210" as="geometry" />
        </mxCell>
        <mxCell id="761dnnyQ54j-Cl0NHfQN-46868" value="32" style="rounded=0;whiteSpace=wrap;html=1;fontSize=32;" parent="DDAUUkxgNkph-y3eDjy--29" vertex="1">
          <mxGeometry x="510" y="400" width="320" height="320" as="geometry" />
        </mxCell>
        <mxCell id="761dnnyQ54j-Cl0NHfQN-46869" value="11" style="rounded=0;whiteSpace=wrap;html=1;fontSize=32;" parent="DDAUUkxgNkph-y3eDjy--29" vertex="1">
          <mxGeometry x="830" y="610" width="110" height="110" as="geometry" />
        </mxCell>
        <mxCell id="761dnnyQ54j-Cl0NHfQN-46870" value="6" style="rounded=0;whiteSpace=wrap;html=1;fontSize=32;" parent="DDAUUkxgNkph-y3eDjy--29" vertex="1">
          <mxGeometry x="940" y="610" width="60" height="60" as="geometry" />
        </mxCell>
        <mxCell id="761dnnyQ54j-Cl0NHfQN-46871" value="10" style="rounded=0;whiteSpace=wrap;html=1;fontSize=32;" parent="DDAUUkxgNkph-y3eDjy--29" vertex="1">
          <mxGeometry x="1000" y="570" width="100" height="100" as="geometry" />
        </mxCell>
        <mxCell id="761dnnyQ54j-Cl0NHfQN-46872" value="13" style="rounded=0;whiteSpace=wrap;html=1;fontSize=32;" parent="DDAUUkxgNkph-y3eDjy--29" vertex="1">
          <mxGeometry x="830" y="480" width="130" height="130" as="geometry" />
        </mxCell>
        <mxCell id="761dnnyQ54j-Cl0NHfQN-46873" value="4" style="rounded=0;whiteSpace=wrap;html=1;fontSize=32;" parent="DDAUUkxgNkph-y3eDjy--29" vertex="1">
          <mxGeometry x="960" y="570" width="40" height="40" as="geometry" />
        </mxCell>
        <mxCell id="761dnnyQ54j-Cl0NHfQN-46874" value="24" style="rounded=0;whiteSpace=wrap;html=1;fontSize=32;" parent="DDAUUkxgNkph-y3eDjy--29" vertex="1">
          <mxGeometry x="1100" y="430" width="240" height="240" as="geometry" />
        </mxCell>
        <mxCell id="761dnnyQ54j-Cl0NHfQN-46875" value="14" style="rounded=0;whiteSpace=wrap;html=1;fontSize=32;" parent="DDAUUkxgNkph-y3eDjy--29" vertex="1">
          <mxGeometry x="960" y="430" width="140" height="140" as="geometry" />
        </mxCell>
        <mxCell id="761dnnyQ54j-Cl0NHfQN-46876" value="8" style="rounded=0;whiteSpace=wrap;html=1;fontSize=32;" parent="DDAUUkxgNkph-y3eDjy--29" vertex="1">
          <mxGeometry x="830" y="400" width="80" height="80" as="geometry" />
        </mxCell>
        <mxCell id="761dnnyQ54j-Cl0NHfQN-46877" value="5" style="rounded=0;whiteSpace=wrap;html=1;fontSize=32;" parent="DDAUUkxgNkph-y3eDjy--29" vertex="1">
          <mxGeometry x="910" y="430" width="50" height="50" as="geometry" />
        </mxCell>
        <mxCell id="761dnnyQ54j-Cl0NHfQN-46878" value="43" style="rounded=0;whiteSpace=wrap;html=1;fontSize=32;" parent="DDAUUkxgNkph-y3eDjy--29" vertex="1">
          <mxGeometry x="910" width="430" height="430" as="geometry" />
        </mxCell>
        <mxCell id="761dnnyQ54j-Cl0NHfQN-46879" value="51" style="rounded=0;whiteSpace=wrap;html=1;fontSize=32;" parent="DDAUUkxgNkph-y3eDjy--29" vertex="1">
          <mxGeometry width="510" height="510" as="geometry" />
        </mxCell>
        <mxCell id="761dnnyQ54j-Cl0NHfQN-46880" value="40" style="rounded=0;whiteSpace=wrap;html=1;fontSize=32;" parent="DDAUUkxgNkph-y3eDjy--29" vertex="1">
          <mxGeometry x="510" width="400" height="400" as="geometry" />
        </mxCell>
        <mxCell id="DDAUUkxgNkph-y3eDjy--30" value="" style="group;flipV=1;" vertex="1" connectable="0" parent="1">
          <mxGeometry x="1460" y="11640" width="1340" height="1050" as="geometry" />
        </mxCell>
        <mxCell id="761dnnyQ54j-Cl0NHfQN-47770" value="31" style="rounded=0;whiteSpace=wrap;html=1;fontSize=32;" parent="DDAUUkxgNkph-y3eDjy--30" vertex="1">
          <mxGeometry y="740" width="310" height="310" as="geometry" />
        </mxCell>
        <mxCell id="761dnnyQ54j-Cl0NHfQN-47771" value="29" style="rounded=0;whiteSpace=wrap;html=1;fontSize=32;" parent="DDAUUkxgNkph-y3eDjy--30" vertex="1">
          <mxGeometry x="310" y="760" width="290" height="290" as="geometry" />
        </mxCell>
        <mxCell id="761dnnyQ54j-Cl0NHfQN-47772" value="36" style="rounded=0;whiteSpace=wrap;html=1;fontSize=32;" parent="DDAUUkxgNkph-y3eDjy--30" vertex="1">
          <mxGeometry x="600" y="690" width="360" height="360" as="geometry" />
        </mxCell>
        <mxCell id="761dnnyQ54j-Cl0NHfQN-47773" value="2" style="rounded=0;whiteSpace=wrap;html=1;fontSize=32;" parent="DDAUUkxgNkph-y3eDjy--30" vertex="1">
          <mxGeometry x="310" y="740" width="20" height="20" as="geometry" />
        </mxCell>
        <mxCell id="761dnnyQ54j-Cl0NHfQN-47774" value="27" style="rounded=0;whiteSpace=wrap;html=1;fontSize=32;" parent="DDAUUkxgNkph-y3eDjy--30" vertex="1">
          <mxGeometry x="330" y="490" width="270" height="270" as="geometry" />
        </mxCell>
        <mxCell id="761dnnyQ54j-Cl0NHfQN-47775" value="33" style="rounded=0;whiteSpace=wrap;html=1;fontSize=32;" parent="DDAUUkxgNkph-y3eDjy--30" vertex="1">
          <mxGeometry y="410" width="330" height="330" as="geometry" />
        </mxCell>
        <mxCell id="761dnnyQ54j-Cl0NHfQN-47776" value="38" style="rounded=0;whiteSpace=wrap;html=1;fontSize=32;" parent="DDAUUkxgNkph-y3eDjy--30" vertex="1">
          <mxGeometry x="960" y="670" width="380" height="380" as="geometry" />
        </mxCell>
        <mxCell id="761dnnyQ54j-Cl0NHfQN-47777" value="22" style="rounded=0;whiteSpace=wrap;html=1;fontSize=32;" parent="DDAUUkxgNkph-y3eDjy--30" vertex="1">
          <mxGeometry x="600" y="470" width="220" height="220" as="geometry" />
        </mxCell>
        <mxCell id="761dnnyQ54j-Cl0NHfQN-47778" value="14" style="rounded=0;whiteSpace=wrap;html=1;fontSize=32;" parent="DDAUUkxgNkph-y3eDjy--30" vertex="1">
          <mxGeometry x="820" y="550" width="140" height="140" as="geometry" />
        </mxCell>
        <mxCell id="761dnnyQ54j-Cl0NHfQN-47779" value="8" style="rounded=0;whiteSpace=wrap;html=1;fontSize=32;" parent="DDAUUkxgNkph-y3eDjy--30" vertex="1">
          <mxGeometry x="330" y="410" width="80" height="80" as="geometry" />
        </mxCell>
        <mxCell id="761dnnyQ54j-Cl0NHfQN-47780" value="19" style="rounded=0;whiteSpace=wrap;html=1;fontSize=32;" parent="DDAUUkxgNkph-y3eDjy--30" vertex="1">
          <mxGeometry x="410" y="300" width="190" height="190" as="geometry" />
        </mxCell>
        <mxCell id="761dnnyQ54j-Cl0NHfQN-47781" value="10" style="rounded=0;whiteSpace=wrap;html=1;fontSize=32;" parent="DDAUUkxgNkph-y3eDjy--30" vertex="1">
          <mxGeometry x="960" y="570" width="100" height="100" as="geometry" />
        </mxCell>
        <mxCell id="761dnnyQ54j-Cl0NHfQN-47782" value="28" style="rounded=0;whiteSpace=wrap;html=1;fontSize=32;" parent="DDAUUkxgNkph-y3eDjy--30" vertex="1">
          <mxGeometry x="1060" y="390" width="280" height="280" as="geometry" />
        </mxCell>
        <mxCell id="761dnnyQ54j-Cl0NHfQN-47783" value="3" style="rounded=0;whiteSpace=wrap;html=1;fontSize=32;" parent="DDAUUkxgNkph-y3eDjy--30" vertex="1">
          <mxGeometry x="960" y="540" width="30" height="30" as="geometry" />
        </mxCell>
        <mxCell id="761dnnyQ54j-Cl0NHfQN-47784" value="7" style="rounded=0;whiteSpace=wrap;html=1;fontSize=32;" parent="DDAUUkxgNkph-y3eDjy--30" vertex="1">
          <mxGeometry x="990" y="500" width="70" height="70" as="geometry" />
        </mxCell>
        <mxCell id="761dnnyQ54j-Cl0NHfQN-47785" value="13" style="rounded=0;whiteSpace=wrap;html=1;fontSize=32;" parent="DDAUUkxgNkph-y3eDjy--30" vertex="1">
          <mxGeometry x="820" y="420" width="130" height="130" as="geometry" />
        </mxCell>
        <mxCell id="761dnnyQ54j-Cl0NHfQN-47786" value="1" style="rounded=0;whiteSpace=wrap;html=1;fontSize=32;" parent="DDAUUkxgNkph-y3eDjy--30" vertex="1">
          <mxGeometry x="950" y="540" width="10" height="10" as="geometry" />
        </mxCell>
        <mxCell id="761dnnyQ54j-Cl0NHfQN-47787" value="4" style="rounded=0;whiteSpace=wrap;html=1;fontSize=32;" parent="DDAUUkxgNkph-y3eDjy--30" vertex="1">
          <mxGeometry x="950" y="500" width="40" height="40" as="geometry" />
        </mxCell>
        <mxCell id="761dnnyQ54j-Cl0NHfQN-47788" value="11" style="rounded=0;whiteSpace=wrap;html=1;fontSize=32;" parent="DDAUUkxgNkph-y3eDjy--30" vertex="1">
          <mxGeometry x="950" y="390" width="110" height="110" as="geometry" />
        </mxCell>
        <mxCell id="761dnnyQ54j-Cl0NHfQN-47789" value="17" style="rounded=0;whiteSpace=wrap;html=1;fontSize=32;" parent="DDAUUkxgNkph-y3eDjy--30" vertex="1">
          <mxGeometry x="600" y="300" width="170" height="170" as="geometry" />
        </mxCell>
        <mxCell id="761dnnyQ54j-Cl0NHfQN-47790" value="5" style="rounded=0;whiteSpace=wrap;html=1;fontSize=32;" parent="DDAUUkxgNkph-y3eDjy--30" vertex="1">
          <mxGeometry x="770" y="420" width="50" height="50" as="geometry" />
        </mxCell>
        <mxCell id="761dnnyQ54j-Cl0NHfQN-47791" value="18" style="rounded=0;whiteSpace=wrap;html=1;fontSize=32;" parent="DDAUUkxgNkph-y3eDjy--30" vertex="1">
          <mxGeometry x="770" y="240" width="180" height="180" as="geometry" />
        </mxCell>
        <mxCell id="761dnnyQ54j-Cl0NHfQN-47792" value="39" style="rounded=0;whiteSpace=wrap;html=1;fontSize=32;" parent="DDAUUkxgNkph-y3eDjy--30" vertex="1">
          <mxGeometry x="950" width="390" height="390" as="geometry" />
        </mxCell>
        <mxCell id="761dnnyQ54j-Cl0NHfQN-47793" value="41" style="rounded=0;whiteSpace=wrap;html=1;fontSize=32;" parent="DDAUUkxgNkph-y3eDjy--30" vertex="1">
          <mxGeometry width="410" height="410" as="geometry" />
        </mxCell>
        <mxCell id="761dnnyQ54j-Cl0NHfQN-47794" value="30" style="rounded=0;whiteSpace=wrap;html=1;fontSize=32;" parent="DDAUUkxgNkph-y3eDjy--30" vertex="1">
          <mxGeometry x="410" width="300" height="300" as="geometry" />
        </mxCell>
        <mxCell id="761dnnyQ54j-Cl0NHfQN-47795" value="6" style="rounded=0;whiteSpace=wrap;html=1;fontSize=32;" parent="DDAUUkxgNkph-y3eDjy--30" vertex="1">
          <mxGeometry x="710" y="240" width="60" height="60" as="geometry" />
        </mxCell>
        <mxCell id="761dnnyQ54j-Cl0NHfQN-47796" value="24" style="rounded=0;whiteSpace=wrap;html=1;fontSize=32;" parent="DDAUUkxgNkph-y3eDjy--30" vertex="1">
          <mxGeometry x="710" width="240" height="240" as="geometry" />
        </mxCell>
      </root>
    </mxGraphModel>
  </diagram>
</mxfile>
